<svg xmlns="http://www.w3.org/2000/svg" xmlns:xlink="http://www.w3.org/1999/xlink" viewBox="0 0 157 157"><defs><style>.cls-1{isolation:isolate;}.cls-2{fill:#fff;}.cls-3{fill:#3dc9b3;}.cls-4{opacity:0.05;mix-blend-mode:multiply;fill:url(#linear-gradient);}</style><linearGradient id="linear-gradient" x1="48.46" y1="88.4" x2="146.85" y2="112.93" gradientUnits="userSpaceOnUse"><stop offset="0" stop-color="#303030"/><stop offset="0.46" stop-color="#2e2e2e" stop-opacity="0.96"/><stop offset="0.67" stop-color="#272727" stop-opacity="0.8"/><stop offset="0.83" stop-color="#1a1a1a" stop-opacity="0.54"/><stop offset="0.96" stop-color="#080808" stop-opacity="0.16"/><stop offset="1" stop-opacity="0"/></linearGradient></defs><title>card_2</title><g class="cls-1"><g id="Layer_2" data-name="Layer 2"><g id="Layer_1-2" data-name="Layer 1"><circle class="cls-2" cx="78.5" cy="78.5" r="78.5"/><path class="cls-3" d="M154,78.5A75.5,75.5,0,1,1,78.5,3,75.23,75.23,0,0,1,154,78.5Z"/><polygon class="cls-4" points="108.99 78.05 108.58 77.98 87.02 56.42 77.88 75.47 64.2 61.79 51.16 77.58 63.3 95.21 114.57 146.48 132.41 133.6 146.26 115.32 108.99 78.05"/><path class="cls-2" d="M66.8,64.39l-2.6-2.6a.63.63,0,0,0-.9,0L47.06,78.05a.63.63,0,0,0,0,.9L63.3,95.21a.63.63,0,0,0,.9,0l2.6-2.6a.62.62,0,0,0,0-.89L54,79a.63.63,0,0,1,0-.9L66.8,65.28A.62.62,0,0,0,66.8,64.39Z"/><path class="cls-2" d="M89.25,64.39l2.6-2.6a.62.62,0,0,1,.89,0L109,78.05a.63.63,0,0,1,0,.9L92.74,95.21a.62.62,0,0,1-.89,0l-2.6-2.6a.62.62,0,0,1,0-.89L102,79a.63.63,0,0,0,0-.9L89.25,65.28A.62.62,0,0,1,89.25,64.39Z"/><path class="cls-2" d="M82.26,55.42,69.05,100.18a.56.56,0,0,0,.46.64l3.55,1.05a.56.56,0,0,0,.73-.29L87,56.82a.56.56,0,0,0-.46-.64l-3.55-1A.55.55,0,0,0,82.26,55.42Z"/></g></g></g></svg>