<svg xmlns="http://www.w3.org/2000/svg" xmlns:xlink="http://www.w3.org/1999/xlink" viewBox="0 0 157 157"><defs><style>.cls-1{isolation:isolate;}.cls-2{fill:#fff;}.cls-3{fill:#3dc9b3;}.cls-4{opacity:0.05;mix-blend-mode:multiply;fill:url(#linear-gradient);}</style><linearGradient id="linear-gradient" x1="48.15" y1="91.8" x2="146.26" y2="116.26" gradientUnits="userSpaceOnUse"><stop offset="0" stop-color="#303030"/><stop offset="0.46" stop-color="#2e2e2e" stop-opacity="0.96"/><stop offset="0.67" stop-color="#272727" stop-opacity="0.8"/><stop offset="0.83" stop-color="#1a1a1a" stop-opacity="0.54"/><stop offset="0.96" stop-color="#080808" stop-opacity="0.16"/><stop offset="1" stop-opacity="0"/></linearGradient></defs><title>card_1</title><g class="cls-1"><g id="Layer_2" data-name="Layer 2"><g id="Layer_1-2" data-name="Layer 1"><circle class="cls-2" cx="78.5" cy="78.5" r="78.5"/><path class="cls-3" d="M154,78.5A75.5,75.5,0,1,1,78.5,3,75.23,75.23,0,0,1,154,78.5Z"/><path class="cls-4" d="M148.77,106.17A75.72,75.72,0,0,1,99,151.2L46.69,99l12-5.31L55.3,90.29l.9-30.78,44.61-1.31Z"/><path class="cls-2" d="M111,93.63H46a.51.51,0,0,0-.51.51V96a4.39,4.39,0,0,0,4.39,4.38h57.16A4.39,4.39,0,0,0,111.47,96V94.14A.51.51,0,0,0,111,93.63ZM81.52,96.87a.13.13,0,0,1-.14.13H75.06a.13.13,0,0,1-.13-.13v-.4a.67.67,0,0,1,.67-.67h5.25a.67.67,0,0,1,.67.67Z"/><path class="cls-2" d="M59.24,91.82H96.82A5.85,5.85,0,0,0,102.66,86V62.46a5.84,5.84,0,0,0-5.84-5.83H59.24a5.84,5.84,0,0,0-5.84,5.83V86A5.85,5.85,0,0,0,59.24,91.82Zm-.7-30.2a.55.55,0,0,1,.55-.55H97a.55.55,0,0,1,.54.55V86.83a.54.54,0,0,1-.54.54H59.09a.55.55,0,0,1-.55-.54Z"/></g></g></g></svg>