<svg xmlns="http://www.w3.org/2000/svg" xmlns:xlink="http://www.w3.org/1999/xlink" viewBox="0 0 157 157"><defs><style>.cls-1{isolation:isolate;}.cls-2{fill:#fff;}.cls-3{fill:#3dc9b3;}.cls-4{opacity:0.05;mix-blend-mode:multiply;fill:url(#linear-gradient);}</style><linearGradient id="linear-gradient" x1="49.83" y1="85.06" x2="148.21" y2="109.59" gradientUnits="userSpaceOnUse"><stop offset="0" stop-color="#303030"/><stop offset="0.46" stop-color="#2e2e2e" stop-opacity="0.96"/><stop offset="0.67" stop-color="#272727" stop-opacity="0.8"/><stop offset="0.83" stop-color="#1a1a1a" stop-opacity="0.54"/><stop offset="0.96" stop-color="#080808" stop-opacity="0.16"/><stop offset="1" stop-opacity="0"/></linearGradient></defs><title>card_3</title><g class="cls-1"><g id="Layer_2" data-name="Layer 2"><g id="Layer_1-2" data-name="Layer 1"><circle class="cls-2" cx="78.5" cy="78.5" r="78.5"/><path class="cls-3" d="M154,78.5a75.15,75.15,0,0,1-4.36,25.34c-.28.78-.57,1.56-.87,2.33a75.72,75.72,0,0,1-31.25,37A74.52,74.52,0,0,1,99,151.2,75.51,75.51,0,1,1,154,78.5Z"/><path class="cls-4" d="M149.64,103.84c-.28.78-.57,1.56-.87,2.33a75.72,75.72,0,0,1-31.25,37L75.8,103.92,63,84.76l-3.37-3.37L56.2,59.51,102.41,57Z"/><path class="cls-2" d="M77.27,59.7c2.39-1.87,4.39-3.87,6.77-5.19,5.36-3,10.93-3,16,.59,5.34,3.73,7.63,9.06,6.82,15.63A16.52,16.52,0,0,1,102,80.45L79.19,103.92a2.34,2.34,0,0,1-3.38,0c-4.56-4.69-17.14-17.64-23-23.66a16.45,16.45,0,0,1,1.6-24.8C60.3,50.89,69.59,51.73,75,57.31Z"/></g></g></g></svg>